<svg xmlns="http://www.w3.org/2000/svg" viewBox="0 0 4000 4000" width="800" height="800">
  <rect width="4000" height="4000" fill="white"/>

  <g transform="translate(0,4000) scale(1,-1)" fill="#000000" stroke="none">

    <!-- Mountain main body (traced from original) -->
    <path d="M1721 2926 l-244 -245 -130 135 c-71 74 -134 134 -141 134 -6 0 -233
-222 -503 -492 l-493 -493 0 -17 c0 -9 4 -20 10 -23 12 -7 23 1 286 200 110
83 223 161 252 175 l54 24 45 -52 45 -52 22 0 22 0 36 38 36 37 42 100 c24 55
55 132 71 170 40 103 99 225 107 225 4 0 41 -37 82 -82 41 -45 118 -127 170
-183 52 -55 169 -180 259 -278 90 -98 169 -176 175 -174 6 2 12 17 14 33 l3
29 -28 36 c-56 72 -208 256 -276 332 -38 43 -68 79 -66 81 28 22 129 85 147
90 l22 7 0 -50 0 -51 68 0 67 0 73 -115 74 -115 14 0 15 0 -6 33 c-3 17 -16
160 -30 317 -14 157 -27 300 -29 318 l-5 32 14 -7 c23 -13 615 -584 615 -593
l0 -9 -32 10 c-18 5 -61 9 -96 9 l-63 0 -36 -15 c-49 -21 -47 -19 -254 -242
l-179 -192 0 -29 c0 -16 7 -35 15 -42 l14 -12 20 7 c11 3 102 90 201 193 100
103 198 197 218 209 l37 23 56 0 56 0 55 -19 c101 -35 121 -48 334 -218 51
-40 99 -73 107 -73 8 0 17 10 20 22 l6 21 -333 331 c-506 503 -759 746 -776
746 -8 0 -125 -110 -259 -244z"/>

    <!-- Right mountain peak (traced from original) -->
    <path d="M2827 2589 l-95 -81 61 -57 c126 -116 157 -144 161 -140 2 2 6 40 9
84 3 44 6 81 7 83 0 2 46 -34 103 -80 56 -46 179 -142 272 -213 199 -153 229
-176 273 -212 l33 -26 16 15 15 16 -8 15 c-5 8 -124 121 -264 252 -140 131
-298 280 -350 331 l-95 94 -21 0 -21 0 -96 -81z"/>

    <!-- Snow cap detail (traced from original) -->
    <path d="M1237 2398 c-31 -79 -59 -151 -63 -160 l-6 -18 12 0 c6 0 53 38 103
85 51 47 102 88 114 92 13 3 23 7 23 10 0 8 -113 133 -120 133 -4 0 -32 -64
-63 -142z"/>

  </g>

  <!-- Clean text replacement -->
  <text x="2000" y="3100"
        font-family="Arial Black, Arial, Helvetica, sans-serif"
        font-weight="900"
        font-size="550"
        text-anchor="middle"
        fill="black"
        letter-spacing="-10">RidgetopAi</text>

</svg>
